<?xml version="1.0" standalone="no"?>
<!DOCTYPE svg PUBLIC "-//W3C//DTD SVG 20010904//EN"
 "http://www.w3.org/TR/2001/REC-SVG-20010904/DTD/svg10.dtd">
<svg version="1.0" xmlns="http://www.w3.org/2000/svg"
 width="96.000000pt" height="96.000000pt" viewBox="0 0 96.000000 96.000000"
 preserveAspectRatio="xMidYMid meet">
<metadata>
Created by potrace 1.14, written by Peter Selinger 2001-2017
</metadata>
<g transform="translate(0.000000,96.000000) scale(0.100000,-0.100000)"
fill="#000000" stroke="none">
<path d="M0 885 l0 -74 138 -4 137 -3 -137 -2 -138 -2 0 -104 0 -105 48 -4 47
-3 -47 -2 -48 -2 0 -105 0 -104 133 -4 132 -3 -132 -2 -133 -2 0 -100 0 -99
113 -4 112 -3 -112 -2 -113 -2 0 -75 0 -75 480 0 480 0 0 75 0 74 -122 4 -123
3 123 2 122 2 0 100 0 99 -142 4 -143 3 143 2 142 2 0 104 0 105 -47 4 -48 3
48 2 47 2 0 105 0 104 -137 4 -138 3 138 2 137 2 0 75 0 75 -480 0 -480 0 0
-75z m507 -82 c-20 -2 -52 -2 -70 0 -17 2 0 4 38 4 39 0 53 -2 32 -4z m-184
-220 c-13 -2 -35 -2 -50 0 -16 2 -5 4 22 4 28 0 40 -2 28 -4z m195 0 c-26 -2
-71 -2 -100 0 -29 2 -8 3 47 3 55 0 79 -1 53 -3z m175 0 c-13 -2 -35 -2 -50 0
-16 2 -5 4 22 4 28 0 40 -2 28 -4z"/>
</g>
</svg>
